<?xml version="1.0" encoding="UTF-8" standalone="no"?>
<svg
   xmlns:dc="http://purl.org/dc/elements/1.1/"
   xmlns:cc="http://creativecommons.org/ns#"
   xmlns:rdf="http://www.w3.org/1999/02/22-rdf-syntax-ns#"
   xmlns:svg="http://www.w3.org/2000/svg"
   xmlns="http://www.w3.org/2000/svg"
   xmlns:sodipodi="http://sodipodi.sourceforge.net/DTD/sodipodi-0.dtd"
   xmlns:inkscape="http://www.inkscape.org/namespaces/inkscape"
   sodipodi:docname="favicon.svg"
   inkscape:version="1.0 (4035a4fb49, 2020-05-01)"
   id="svg269"
   version="1.1"
   viewBox="0 0 42 42"
   height="42mm"
   width="42mm">
  <defs
     id="defs263" />
  <sodipodi:namedview
     inkscape:window-maximized="0"
     inkscape:window-y="16"
     inkscape:window-x="0"
     inkscape:window-height="991"
     inkscape:window-width="1499"
     inkscape:pagecheckerboard="true"
     showgrid="false"
     inkscape:document-rotation="0"
     inkscape:current-layer="layer1"
     inkscape:document-units="mm"
     inkscape:cy="193.58874"
     inkscape:cx="32.747459"
     inkscape:zoom="2.1133045"
     inkscape:pageshadow="2"
     inkscape:pageopacity="0.0"
     borderopacity="1.0"
     bordercolor="#666666"
     pagecolor="#ffffff"
     id="base" />
  <metadata
     id="metadata266">
    <rdf:RDF>
      <cc:Work
         rdf:about="">
        <dc:format>image/svg+xml</dc:format>
        <dc:type
           rdf:resource="http://purl.org/dc/dcmitype/StillImage" />
        <dc:title></dc:title>
      </cc:Work>
    </rdf:RDF>
  </metadata>
  <g
     id="layer1"
     inkscape:groupmode="layer"
     inkscape:label="Layer 1">
    <path
       inkscape:transform-center-y="-7.1918282"
       inkscape:transform-center-x="0.084607044"
       id="path240"
       style="fill:#17ebe8;fill-opacity:1;stroke-width:0.264583"
       d="m 21.045144,0.37008126 c -3.38731,-0.0026 -6.78583,0.76618104 -9.81904,2.30683604 -1.6949988,0.860941 -2.6544483,1.616748 -4.8167583,3.794084 -2.41277,2.4295235 -2.83994,3.0089995 -4.01267,5.4451447 -1.66707005,3.463025 -2.19471007,5.639613 -2.19418007,9.04906 7.4e-4,4.454272 1.02310007,7.816935 3.50573007,11.528494 2.68391,4.012502 6.1531691,6.690326 10.6964983,8.256344 1.23298,0.42499 3.16558,0.863362 4.29431,0.974101 8.29192,0.81349 15.65236,-2.83518 20.1011,-9.964248 4.42542,-7.09169 3.97158,-16.451358 -1.11879,-23.0724937 -1.87803,-2.442801 -4.60292,-4.816307 -6.88382,-5.9955 -2.98918,-1.545352 -6.36506,-2.31917804 -9.75238,-2.32182204 z m 0.14935,2.90938404 c 1.52,8.6e-5 3.00467,0.152308 4.18682,0.464054 9.03364,2.382269 15.02875,11.8797957 13.1284,20.7982137 -0.42264,1.983489 -2.0719,5.870569 -2.7187,6.407359 -0.27217,0.22588 -0.61527,-0.0011 -1.51928,-1.006655 -0.64212,-0.714193 -1.60134,-1.531935 -2.13166,-1.816944 -0.75528,-0.405932 -0.92905,-0.632952 -0.80305,-1.047483 0.0885,-0.291039 0.22883,-1.554228 0.31213,-2.807578 0.32599,-4.90466 -1.88226,-10.136921 -5.56556,-13.18731 -0.99772,-0.82628 -3.37881,-1.6004012 -4.91081,-1.5968012 -2.83401,0.0067 -5.14601,1.2500052 -7.08535,3.8101032 -2.96357,3.91219 -4.0932497,8.851095 -3.10679,13.583148 0.12876,0.617691 0.0835,0.859896 -0.16123,0.859896 -0.63717,0 -2.8442383,1.604817 -3.4690383,2.522329 -0.34234,0.502729 -0.70863,0.914704 -0.81442,0.915704 -0.57824,0.0055 -2.48426,-4.150389 -2.98276,-6.503476 -1.0157,-4.794454 0.0226,-9.723667 2.88664,-13.700974 2.5314095,-3.5154377 5.4804083,-5.7248307 9.2841883,-6.9556467 1.50344,-0.486482 3.51617,-0.738051 5.47047,-0.737939 z" />
  </g>
</svg>
