<?xml version="1.0" encoding="UTF-8" standalone="no"?>
<svg
   xmlns:dc="http://purl.org/dc/elements/1.1/"
   xmlns:cc="http://creativecommons.org/ns#"
   xmlns:rdf="http://www.w3.org/1999/02/22-rdf-syntax-ns#"
   xmlns:svg="http://www.w3.org/2000/svg"
   xmlns="http://www.w3.org/2000/svg"
   xmlns:sodipodi="http://sodipodi.sourceforge.net/DTD/sodipodi-0.dtd"
   xmlns:inkscape="http://www.inkscape.org/namespaces/inkscape"
   sodipodi:docname="icon.svg"
   inkscape:version="1.0 (4035a4fb49, 2020-05-01)"
   id="svg151"
   version="1.1"
   viewBox="0 0 40 40"
   height="40mm"
   width="40mm">
  <defs
     id="defs145" />
  <sodipodi:namedview
     inkscape:window-maximized="0"
     inkscape:window-y="16"
     inkscape:window-x="417"
     inkscape:window-height="991"
     inkscape:window-width="1499"
     showgrid="false"
     inkscape:document-rotation="0"
     inkscape:current-layer="layer1"
     inkscape:document-units="mm"
     inkscape:cy="166.87075"
     inkscape:cx="-83.575324"
     inkscape:zoom="0.90895818"
     inkscape:pageshadow="2"
     inkscape:pageopacity="0.0"
     borderopacity="1.0"
     bordercolor="#666666"
     pagecolor="#ffffff"
     id="base" />
  <metadata
     id="metadata148">
    <rdf:RDF>
      <cc:Work
         rdf:about="">
        <dc:format>image/svg+xml</dc:format>
        <dc:type
           rdf:resource="http://purl.org/dc/dcmitype/StillImage" />
        <dc:title></dc:title>
      </cc:Work>
    </rdf:RDF>
  </metadata>
  <g
     id="layer1"
     inkscape:groupmode="layer"
     inkscape:label="Layer 1">
    <path
       d="m 5.2027773,33.057654 4.7625,-3.43959 c -1.33561,-4.75245 -0.30374,-10.058801 2.6257297,-14.02292 3.42953,-4.64055 9.21015,-5.55014 13.50354,-1.54157 3.030539,2.82946 4.391021,7.03723 4.72678,11.06658 0.110601,1.32477 -0.808569,3.17473 -0.312999,4.39764 0.492919,1.21681 2.991109,2.784739 4.063198,3.53986 1.720332,-2.81332 2.825232,-5.9354 2.906451,-9.26043 0.0688,-2.81013 -0.48604,-5.64477 -1.66528,-8.20208 -0.942189,-2.04269 -2.266691,-3.73221 -3.886999,-5.28124 -12.016841,-11.4889815 -32.10613066,-0.259 -29.3896507,15.86457 0.42148,2.50244 1.26841,4.75907 2.66673,6.87918 m 10.5833697,-5.02709 h 0.52916 c 1.69519,-2.15291 5.680871,-2.72839 7.14375,0 1.9521,-0.95408 2.05238,-2.8911 2.64584,-4.7625 l -1.5875,-0.26459 c -1.001709,3.52901 -2.7514,0.46277 -4.50453,0.24369 -0.9062,-0.11324 -1.43219,0.97868 -2.13387,1.35678 -1.47531,0.79481 -2.26668,-0.8226 -2.8866,-1.86504 -1.96136,1.09299 -0.0426,3.92879 0.79375,5.29166 m 1.85208,3.175 -4.7625,-6.87916 c -2.23467,0.7784 -2.18069,3.11388 -0.70379,4.71355 1.37081,1.48458 3.5478,1.91796 5.46629,2.16561 m 9.525001,-6.87916 c -1.054891,3.03556 -2.634451,4.80139 -5.291671,6.61457 3.263381,1.00066 10.131431,-4.04178 5.291671,-6.61457 m -4.233331,5.02707 c -0.61966,-1.75233 -3.54542,-2.91465 -5.15435,-1.42795 -1.279,1.18189 0.35825,2.10185 1.45018,2.19684 0.51911,0.0452 1.068651,0.0474 1.5875,-0.003 0.79931,-0.0775 1.42743,-0.37994 2.11667,-0.76597 m -1.85209,-0.52917 v 0.79375 h -2.38125 v -0.79375 z"
       style="fill:#0a6a68;stroke:none;stroke-width:0.264583;fill-opacity:1"
       id="path16" />
  </g>
</svg>
