<?xml version="1.0" encoding="UTF-8" standalone="no"?>
<svg
   xmlns:dc="http://purl.org/dc/elements/1.1/"
   xmlns:cc="http://creativecommons.org/ns#"
   xmlns:rdf="http://www.w3.org/1999/02/22-rdf-syntax-ns#"
   xmlns:svg="http://www.w3.org/2000/svg"
   xmlns="http://www.w3.org/2000/svg"
   xmlns:sodipodi="http://sodipodi.sourceforge.net/DTD/sodipodi-0.dtd"
   xmlns:inkscape="http://www.inkscape.org/namespaces/inkscape"
   sodipodi:docname="rotko_logo.svg"
   inkscape:version="1.0 (4035a4fb49, 2020-05-01)"
   id="svg1652"
   version="1.1"
   viewBox="0 0 165 52"
   height="52mm"
   width="165mm">
  <defs
     id="defs1646" />
  <sodipodi:namedview
     inkscape:window-maximized="0"
     inkscape:window-y="332"
     inkscape:window-x="-1"
     inkscape:window-height="621"
     inkscape:window-width="1548"
     showgrid="false"
     inkscape:document-rotation="0"
     inkscape:current-layer="layer1"
     inkscape:document-units="mm"
     inkscape:cy="74.808542"
     inkscape:cx="362.00139"
     inkscape:zoom="0.8009872"
     inkscape:pageshadow="2"
     inkscape:pageopacity="0.0"
     borderopacity="1.0"
     bordercolor="#666666"
     pagecolor="#ffffff"
     id="base" />
  <metadata
     id="metadata1649">
    <rdf:RDF>
      <cc:Work
         rdf:about="">
        <dc:format>image/svg+xml</dc:format>
        <dc:type
           rdf:resource="http://purl.org/dc/dcmitype/StillImage" />
        <dc:title></dc:title>
      </cc:Work>
    </rdf:RDF>
  </metadata>
  <g
     id="layer1"
     inkscape:groupmode="layer"
     inkscape:label="Layer 1">
    <path
       id="path990"
       d="M 0.28156202,0.27466939 V 52.39759 H 166.17531 V 0.27466939 H 0.28156202 M 109.81906,27.26217 c 4.33308,-2.96288 7.61206,-7.32946 11.90625,-10.33386 1.64994,-1.15437 4.89347,-0.48487 4.02643,2.13178 -0.82973,2.50357 -4.75589,4.85957 -6.67226,6.57069 -0.76597,0.68389 -2.31061,1.58747 -2.48285,2.68972 -0.18574,1.18984 1.76847,2.86942 2.46142,3.70418 1.9767,2.38178 6.44921,6.15632 6.99267,9.26041 0.41645,2.37887 -2.42226,3.44647 -4.05051,2.05634 -3.48509,-2.97603 -7.10935,-7.96316 -9.53532,-11.84593 -0.88265,0.84482 -2.24578,1.66636 -2.56169,2.91148 -0.61595,2.42782 1.5666,9.23607 -2.46539,9.23607 -3.7121,0 -2.38125,-7.30567 -2.38125,-9.7663 V 14.29759 c 0,-2.23806 -0.75671,-6.1868601 0.31194,-8.1904406 1.01786,-1.90836 3.76873,-1.52562 4.33573,0.51855 0.88027,3.1726805 0.11483,7.5540206 0.11483,10.8468906 v 9.78958 M 91.29823,17.208 c 1.69069,0 4.01584,-0.37586 5.52106,0.56613 1.320801,0.82667 1.270541,2.79609 -0.0214,3.63025 -1.4769,0.95361 -3.82957,0.56612 -5.49962,0.56612 0,3.86096 -1.35969,10.9699 0.78581,14.28645 1.54649,2.39051 6.088591,1.84335 6.724921,4.50003 0.78131,3.26099 -3.457841,3.05409 -5.394061,2.58154 -3.36392,-0.82126 -6.25184,-3.99388 -6.96675,-7.34509 -1.28667,-6.03065 -0.177,-13.40999 -0.177,-19.57918 0,-2.00252 -0.68898,-5.60157 0.31194,-7.3795401 0.92207,-1.6380405 3.50732,-1.3080505 4.29895,0.24744 1.0705,2.1027201 0.41619,5.6180001 0.41619,7.9258501 M 55.050341,9.0814599 c 2.58525,-0.30604 5.48428,0.15899 7.9375,0.9838301 16.47508,5.53931 19.579429,28.08555 5.02708,37.74019 -2.67917,1.77774 -5.81474,2.80274 -8.99583,3.19353 -20.86557,2.56249 -32.11221,-25.35307 -15.08125,-37.82408 3.33851,-2.44459 7.05062,-3.6126401 11.1125,-4.0934701 m -13.22917,30.8807201 4.7625,-3.43959 c -1.33561,-4.75245 -0.30374,-10.0588 2.62573,-14.02292 3.42953,-4.64055 9.21015,-5.55014 13.50354,-1.54157 3.03054,2.82946 4.39102,7.03723 4.72678,11.06658 0.1106,1.32477 -0.80857,3.17473 -0.313,4.39764 0.49292,1.21681 2.99111,2.78474 4.0632,3.53986 1.72033,-2.81332 2.82523,-5.9354 2.90645,-9.26043 0.0688,-2.81013 -0.48604,-5.64477 -1.66528,-8.20208 -0.94219,-2.04269 -2.26669,-3.73221 -3.887,-5.28124 -12.01684,-11.4889806 -32.10613,-0.259 -29.38965,15.86457 0.42148,2.50244 1.26841,4.75907 2.66673,6.87918 m -12.7,-24.26206 c 2.22621,-0.19725 4.27197,2.22652 2.32093,4.0735 -1.26365,1.19623 -3.40413,0.80256 -4.96676,1.33985 -3.11642,1.07148 -5.72077,4.05836 -6.57251,7.20703 -0.94308,3.48615 -0.30528,7.78141 -0.30665,11.37709 -5.3e-4,1.6129 -0.0674,3.66951 -2.11688,3.92536 -1.2641,0.15796 -2.3513,-0.54398 -2.58519,-1.80975 -0.59661,-3.22818 -0.0604,-7.03368 -0.0604,-10.3177 0,-8.52823 5.66748,-15.03153 14.2875,-15.79538 M 142.62745,16.2291 c 14.32719,-1.34504 19.13573,18.797 7.67292,25.83149 -1.65629,1.01653 -3.624,1.63195 -5.55625,1.82509 -14.45048,1.44488 -20.98728,-17.54407 -8.99583,-25.52338 2.0701,-1.37758 4.43891,-1.90412 6.87916,-2.1332 m -1.5875,5.07137 c -11.21727,2.11622 -7.49591,19.72427 3.70417,17.70497 11.87397,-2.14074 8.10286,-19.93244 -3.70417,-17.70497 M 52.404541,34.93509 h 0.52916 c 1.69519,-2.15291 5.68087,-2.72839 7.14375,0 1.9521,-0.95408 2.05238,-2.8911 2.64584,-4.7625 l -1.5875,-0.26459 c -1.00171,3.52901 -2.7514,0.46277 -4.50453,0.24369 -0.9062,-0.11324 -1.43219,0.97868 -2.13387,1.35678 -1.47531,0.79481 -2.26668,-0.8226 -2.8866,-1.86504 -1.96136,1.09299 -0.0426,3.92879 0.79375,5.29166 m 1.85208,3.175 -4.7625,-6.87916 c -2.23467,0.7784 -2.18069,3.11388 -0.70379,4.71355 1.37081,1.48458 3.5478,1.91796 5.46629,2.16561 m 9.525,-6.87916 c -1.05489,3.03556 -2.63445,4.80139 -5.29167,6.61457 3.26338,1.00066 10.13143,-4.04178 5.29167,-6.61457 m -4.23333,5.02707 c -0.61966,-1.75233 -3.54542,-2.91465 -5.15435,-1.42795 -1.279,1.18189 0.35825,2.10185 1.45018,2.19684 0.51911,0.0452 1.06865,0.0474 1.5875,-0.003 0.79931,-0.0775 1.42743,-0.37994 2.11667,-0.76597 m -1.85209,-0.52917 v 0.79375 h -2.38125 v -0.79375 z"
       style="fill:#07050a;stroke:none;stroke-width:0.264583" />
  </g>
</svg>
