<?xml version="1.0" encoding="UTF-8" standalone="no"?>
<svg
   xmlns:dc="http://purl.org/dc/elements/1.1/"
   xmlns:cc="http://creativecommons.org/ns#"
   xmlns:rdf="http://www.w3.org/1999/02/22-rdf-syntax-ns#"
   xmlns:svg="http://www.w3.org/2000/svg"
   xmlns="http://www.w3.org/2000/svg"
   xmlns:sodipodi="http://sodipodi.sourceforge.net/DTD/sodipodi-0.dtd"
   xmlns:inkscape="http://www.inkscape.org/namespaces/inkscape"
   sodipodi:docname="rotko_logo.svg"
   inkscape:version="1.0 (4035a4fb49, 2020-05-01)"
   id="svg5303"
   version="1.1"
   viewBox="0 0 150 48"
   height="48mm"
   width="150mm">
  <defs
     id="defs5297" />
  <sodipodi:namedview
     inkscape:window-maximized="0"
     inkscape:window-y="0"
     inkscape:window-x="371"
     inkscape:window-height="621"
     inkscape:window-width="1548"
     showgrid="false"
     inkscape:document-rotation="0"
     inkscape:current-layer="layer1"
     inkscape:document-units="px"
     inkscape:cy="164.84189"
     inkscape:cx="406.4784"
     inkscape:zoom="0.92143362"
     inkscape:pageshadow="2"
     inkscape:pageopacity="0.0"
     borderopacity="1.0"
     bordercolor="#666666"
     pagecolor="#ffffff"
     id="base" />
  <metadata
     id="metadata5300">
    <rdf:RDF>
      <cc:Work
         rdf:about="">
        <dc:format>image/svg+xml</dc:format>
        <dc:type
           rdf:resource="http://purl.org/dc/dcmitype/StillImage" />
        <dc:title></dc:title>
      </cc:Work>
    </rdf:RDF>
  </metadata>
  <g
     id="layer1"
     inkscape:groupmode="layer"
     inkscape:label="Layer 1">
    <path
       id="path3190"
       d="m 43.537744,46.560389 c -1.12873,-0.11074 -3.06102,-0.54905 -4.294,-0.97404 -4.54333,-1.56602 -8.01278,-4.244 -10.69669,-8.2565 -2.48263,-3.71156 -3.50519,-7.07394 -3.50594,-11.528211 -5.3e-4,-3.409447 0.52718,-5.58591 2.19425,-9.048935 1.17273,-2.436146 1.59993,-3.015874 4.0127,-5.445398 2.16231,-2.1773362 3.1219,-2.9331682 4.8169,-3.7941092 6.06641,-3.081311 13.59329,-3.075435 19.57165,0.01527 2.2809,1.179192 5.00578,3.5522642 6.88381,5.9950652 5.09037,6.621136 5.54423,15.980808 1.11881,23.072498 -4.44874,7.12907 -11.80957,10.77784 -20.10149,9.96435 z m -11.34825,-11.4625 c 0.6248,-0.91751 2.83152,-2.5219 3.46869,-2.5219 0.24469,0 0.29014,-0.24221 0.16138,-0.8599 -0.98646,-4.732054 0.14322,-9.67118 3.10679,-13.58337 1.93934,-2.560098 4.25155,-3.803443 7.08556,-3.810119 1.532,-0.0036 3.913,0.770702 4.91072,1.596983 3.68329,3.050389 5.89133,8.282297 5.56534,13.186956 -0.0833,1.25335 -0.22385,2.51695 -0.3123,2.80799 -0.126,0.41453 0.0481,0.64143 0.80338,1.04736 0.53032,0.28501 1.48958,1.10253 2.1317,1.81672 0.90401,1.00548 1.2468,1.23269 1.51897,1.00681 0.6468,-0.53679 2.29618,-4.42379 2.71882,-6.40728 1.90035,-8.918417 -4.09473,-18.415932 -13.12837,-20.7982012 -2.70206,-0.712563 -6.9845,-0.591222 -9.65729,0.273634 -3.80378,1.2308162 -6.75274,3.4401452 -9.28415,6.9555842 -2.86399,3.977307 -3.90262,8.9065 -2.88692,13.700953 0.4985,2.35309 2.40465,6.50909 2.98289,6.50365 0.10579,-10e-4 0.47245,-0.41314 0.81479,-0.91587 z m 10.16428,-2.65285 c -1.28868,-1.16619 -1.76505,-1.8337 -2.40745,-3.37344 -1.03075,-2.470546 -1.41698,-2.721257 -2.44123,-1.584667 -0.88431,0.981297 -0.97571,1.815727 -0.34456,3.145777 0.78082,1.64546 3.58319,3.22782 5.76254,3.25382 l 1.03728,0.0124 -1.60658,-1.45387 z m 9.26004,0.54549 c 2.07036,-0.97944 3.36111,-2.20068 3.54072,-3.35006 0.12602,-0.80638 0.0194,-1.09832 -0.70048,-1.918227 -0.46701,-0.531901 -1.01079,-0.967091 -1.20838,-0.967091 -0.20053,0 -0.48814,0.496842 -0.65093,1.124481 -0.43794,1.688427 -2.03158,3.845137 -3.62113,4.900547 -0.7696,0.51098 -1.39927,0.98832 -1.39927,1.06075 0,0.33429 2.76622,-0.24806 4.03947,-0.8504 z m -3.05964,-0.55775 c 0.51043,-0.33445 0.5553,-0.48924 0.32068,-1.10634 -0.48802,-1.2836 -0.71953,-1.39652 -2.85426,-1.39224 -2.28265,0.005 -2.53224,0.10312 -2.93331,1.158 -0.34887,0.9176 -0.0492,1.37229 1.14689,1.74009 1.07016,0.32908 3.55936,0.0989 4.32,-0.39951 z m -3.16265,-0.57268 c 0.32742,-0.0631 0.86321,-0.0631 1.19063,0 0.32742,0.0631 0.0595,0.11466 -0.59531,0.11466 -0.65485,0 -0.92274,-0.0516 -0.59532,-0.11466 z m -0.98585,-2.52699 c 0.65136,-0.11697 1.88062,-0.13649 2.73168,-0.0434 1.40333,0.15351 1.59677,0.25296 2.07784,1.06831 l 0.53045,0.89905 0.77241,-0.97195 c 0.42483,-0.53457 0.83994,-1.27962 0.92249,-1.65565 0.0825,-0.376037 0.26929,-1.075566 0.41501,-1.554511 0.34192,-1.123833 0.12866,-1.642734 -0.67515,-1.642734 -0.47782,0 -0.71538,0.205107 -0.92111,0.795266 -0.22813,0.654402 -1.12765,1.321402 -1.78205,1.321402 -0.0665,0 -0.64834,-0.486105 -1.29289,-1.080229 -1.33253,-1.228291 -2.00715,-1.226503 -2.64503,0.007 -0.6717,1.298923 -2.60231,1.235021 -2.93668,-0.0972 -0.21453,-0.854757 -0.72338,-1.264869 -1.29653,-1.044935 -0.38916,0.149337 -0.429,0.392777 -0.27135,1.658213 0.19985,1.604128 0.39664,2.084558 1.39184,3.397898 l 0.64894,0.8564 0.57292,-0.85015 c 0.44188,-0.6557 0.8438,-0.89879 1.75721,-1.06281 z m 67.408466,10.0559 c -0.23082,-0.1819 -2.53264,-2.95011 -5.11516,-6.15157 -2.58251,-3.20145 -4.83958,-5.820828 -5.01572,-5.820828 -0.17612,0 -0.80598,0.438846 -1.39967,0.975212 l -1.079447,0.975216 -0.08417,4.40611 -0.08417,4.40612 -0.742357,0.63794 c -1.247008,1.07161 -3.108016,0.67935 -3.610097,-0.76092 -0.182996,-0.52495 -0.277754,-6.70012 -0.277754,-18.100633 0,-18.9004742 -0.02914,-18.5334882 1.513316,-19.05775523 1.101841,-0.374507 2.375016,0.06344 2.84898,0.97998203 0.337172,0.652016 0.400204,2.401189 0.400204,11.1057962 0,5.682541 0.06232,10.331889 0.138488,10.331889 0.07617,0 2.855477,-2.426605 6.176247,-5.392454 3.32076,-2.965852 6.2867,-5.525696 6.59099,-5.688542 0.82852,-0.443415 1.25823,-0.365879 2.15523,0.388893 0.6208,0.522372 0.81405,0.902766 0.81405,1.602414 0,1.036471 0.35782,0.656204 -5.75469,6.115537 -2.21919,1.982049 -4.0349,3.678473 -4.0349,3.769831 0,0.09136 2.26219,2.938637 5.02709,6.327292 4.36054,5.34427 5.02708,6.28199 5.02708,7.07236 0,1.6803 -2.22602,2.87699 -3.49353,1.87811 z m 18.39013,0.0531 c -7.30237,-1.2916 -12.34676,-8.26214 -11.23956,-15.531262 0.43544,-2.858845 1.78883,-5.522857 3.8508,-7.57995 5.54267,-5.529538 13.74549,-5.525088 19.33581,0.0105 4.53587,4.491452 5.36849,11.508058 1.9903,16.772512 -0.90451,1.40956 -3.37555,3.83877 -4.75687,4.67635 -2.33003,1.41284 -6.39578,2.1444 -9.18048,1.65185 z m 6.42664,-5.34574 c 1.83137,-0.94227 3.91094,-3.26588 4.49403,-5.02142 1.50978,-4.545504 -0.56692,-9.535771 -4.7829,-11.493192 -1.34407,-0.624036 -1.93236,-0.737058 -3.83645,-0.737058 -2.59581,0 -4.45631,0.690427 -6.26585,2.325243 -2.82633,2.55342 -3.66763,7.315877 -1.92741,10.910707 0.76842,1.58734 3.30443,3.87308 4.91159,4.42687 2.01282,0.69359 5.65254,0.49155 7.40699,-0.41115 z m -131.6748365,4.58535 -0.7734,-0.77339 0.005,-6.30421 c 0.005,-7.087849 0.25935,-8.925809 1.62199,-11.728164 1.05247,-2.164474 4.1867,-5.33459 6.4678305,-6.541881 1.87812,-0.993998 4.41724,-1.650746 6.40355,-1.656292 1.1379,-0.0032 1.52308,0.118083 2.05052,0.645522 1.4487,1.448692 0.42053,3.844081 -1.65364,3.852617 -4.79683,0.01974 -9.0752,3.58218 -10.0994305,8.409411 -0.16861,0.794623 -0.30114,4.004337 -0.30591,7.408337 -0.009,6.29358 -0.0484,6.52384 -1.23096,7.15365 -0.93177,0.49626 -1.65966,0.35989 -2.48515,-0.4656 z m 78.0724315,0.35396 c -2.8277,-0.74739 -5.715873,-3.37701 -6.80425,-6.19514 -0.410151,-1.062 -0.46887,-2.6136 -0.543538,-14.362415 l -0.08371,-13.1717922 0.784979,-0.784979 c 1.051774,-1.051775 2.183037,-1.055833 3.227287,-0.01159 l 0.773398,0.773398 v 3.989102 3.9891022 h 2.610152 c 2.239989,0 2.709018,0.07777 3.307291,0.54837 0.936326,0.736516 0.958152,2.125091 0.04771,3.035533 -0.603318,0.603322 -0.838141,0.64943 -3.307291,0.64943 h -2.657862 l 0.0058,6.416146 c 0.0066,7.315505 0.118245,7.824165 2.086644,9.509035 1.057831,0.90547 2.022877,1.27274 3.344275,1.27274 0.33445,0 0.97441,0.30824 1.422136,0.68498 1.731057,1.45658 0.567288,4.10227 -1.785938,4.06011 -0.534537,-0.01 -1.62673,-0.1905 -2.427094,-0.40204 z"
       style="fill:#17ebe8;fill-opacity:1;stroke-width:0.264583" />
  </g>
</svg>
